<svg width="459" height="459" viewBox="0 0 459 459" fill="none" xmlns="http://www.w3.org/2000/svg">
<path d="M229.5 459C102.643 459 0 356.205 0 229.5C0 102.643 102.795 0 229.5 0C356.357 0 459 102.795 459 229.5C459.152 356.357 356.357 459 229.5 459Z" fill="#F7C0B5"/>
<mask id="mask0_8_6616" style="mask-type:alpha" maskUnits="userSpaceOnUse" x="0" y="0" width="459" height="459">
<path d="M229.5 459C102.643 459 0 356.205 0 229.5C0 102.643 102.795 0 229.5 0C356.357 0 459 102.795 459 229.5C459.152 356.357 356.357 459 229.5 459Z" fill="#F7C0B5"/>
</mask>
<g mask="url(#mask0_8_6616)">
<path d="M358.631 422.75C357.56 423.515 356.336 424.28 355.265 425.045C354.041 425.81 352.97 426.575 351.746 427.187C350.675 427.799 349.757 428.411 348.686 429.023C348.533 429.176 348.38 429.176 348.227 429.329C344.708 431.471 341.036 433.46 337.364 435.296C336.293 435.908 335.069 436.52 333.998 436.979C333.998 436.979 333.845 437.132 333.692 437.132C332.468 437.744 331.244 438.356 330.02 438.968C327.572 440.192 324.971 441.263 322.523 442.334C321.299 442.946 319.922 443.405 318.698 443.864C317.474 444.323 316.097 444.935 314.873 445.394C313.649 445.853 312.272 446.465 311.048 446.924C311.048 446.924 311.048 446.924 310.895 446.924C309.671 447.383 308.294 447.842 307.07 448.301C304.316 449.219 301.409 450.137 298.655 451.055C297.737 451.361 296.666 451.667 295.748 451.973C292.841 452.891 289.934 453.656 287.027 454.268C285.956 454.574 284.885 454.727 283.661 455.033C280.907 455.645 278 456.257 275.246 456.869C274.634 457.022 274.175 457.022 273.563 457.175C272.645 457.328 271.574 457.481 270.656 457.634C269.279 457.787 268.055 458.093 266.678 458.246C266.066 458.399 265.454 458.399 264.842 458.552C264.077 458.705 263.159 458.858 262.241 458.858C259.793 459.164 257.192 459.47 254.744 459.776C253.979 459.929 253.061 459.929 252.296 460.082H252.143C251.072 460.235 250.001 460.235 248.93 460.388C247.859 460.541 246.788 460.541 245.717 460.541C245.105 460.541 244.34 460.694 243.728 460.694C242.504 460.694 241.433 460.847 240.362 460.847C238.832 460.847 237.455 461 235.925 461C234.395 461 233.018 461 231.488 461C230.417 461 229.346 461 228.275 461C163.862 460.082 105.722 432.695 64.4123 389.243C64.4123 389.243 64.4123 389.09 64.2593 389.09C69.0023 379.757 86.5973 362.927 104.957 349.004C128.213 331.409 161.108 320.546 161.108 320.546C161.108 320.546 182.681 317.027 262.7 333.704C323.747 346.556 349.757 398.729 358.631 422.75Z" fill="#FEE4BF"/>
<path d="M279.683 376.085C276.47 391.844 255.662 401.177 220.625 387.101C177.632 369.659 161.108 320.546 161.108 320.546C158.813 285.356 153.458 255.215 153.458 255.215C203.183 250.931 261.935 309.071 261.935 309.071L268.667 337.835C269.279 340.283 270.503 342.425 272.339 343.955C275.552 349.463 281.825 365.987 279.683 376.085Z" fill="#FEE4BF"/>
<path d="M272.339 344.108C243.116 342.578 221.543 338.294 198.44 296.831C218.024 314.12 241.127 320.699 265.454 323.759L268.667 337.835C269.279 340.436 270.503 342.578 272.339 344.108Z" fill="#EFBDA5"/>
<path d="M332.774 159.743C335.528 172.595 336.905 182.999 329.408 217.271C321.911 251.543 336.293 285.815 300.185 317.18C275.858 338.294 233.324 342.272 199.358 319.169C187.883 311.366 177.326 300.503 168.758 286.274C162.026 275.105 154.223 264.548 145.502 254.909C133.415 241.751 118.88 215.282 126.071 168.464C137.699 92.2704 213.128 83.5494 257.651 91.9644C302.174 100.379 325.277 125.777 332.774 159.743Z" fill="#FEE4BF"/>
<path d="M186.353 219.566C186.353 219.566 181.61 196.616 159.272 199.37C139.994 201.818 133.262 248.024 177.02 260.876" fill="#FEE4BF"/>
<path d="M175.643 239.915C175.643 239.915 170.135 236.396 170.747 230.276C171.665 223.085 170.747 218.648 167.381 217.271C158.966 213.752 157.283 223.544 157.589 224.768" stroke="#423232" stroke-width="5.08" stroke-miterlimit="10" stroke-linecap="round" stroke-linejoin="round"/>
<path d="M292.382 254.756C292.382 254.756 298.196 255.062 303.704 248.483C306.764 244.811 309.365 240.221 307.682 238.844C305.999 237.314 278.306 241.598 276.47 245.27C274.634 248.942 285.344 254.756 292.382 254.756Z" fill="#EFBDA5"/>
<path d="M296.972 203.348C296.972 203.348 297.278 217.883 306.611 234.101C310.742 241.292 304.469 253.073 290.852 255.062" stroke="#423232" stroke-width="5.08" stroke-miterlimit="10" stroke-linecap="round" stroke-linejoin="round"/>
<path opacity="0.42" d="M214.046 262.559C222.75 262.559 229.805 256.737 229.805 249.554C229.805 242.372 222.75 236.549 214.046 236.549C205.343 236.549 198.287 242.372 198.287 249.554C198.287 256.737 205.343 262.559 214.046 262.559Z" fill="#F2A5B2"/>
<path opacity="0.42" d="M326.96 236.855C326.501 245.423 326.654 253.838 326.042 262.253C319.31 260.723 314.414 255.674 314.414 249.707C314.414 243.281 319.769 238.079 326.96 236.855Z" fill="#F2A5B2"/>
<path d="M275.584 330.48C275.584 330.48 252.634 337.212 220.81 326.808C188.986 316.404 157.927 289.017 157.927 289.017C157.927 289.017 147.829 289.17 144.004 296.82C140.332 304.47 140.485 320.229 134.671 324.513C133.294 325.431 129.469 326.502 123.808 328.032C114.628 330.633 101.011 334.611 87.2408 342.414C76.9898 348.228 66.5858 356.031 57.8648 366.741C53.8868 371.637 50.3678 377.145 47.3078 383.418C23.1338 432.531 33.5378 501.381 33.5378 501.381H407.47C407.47 501.381 396.607 416.313 373.198 388.314C349.789 360.315 305.113 337.671 291.955 331.704V322.83C292.108 322.83 283.999 328.185 275.584 330.48Z" fill="#48D89E"/>
<mask id="mask1_8_6616" style="mask-type:alpha" maskUnits="userSpaceOnUse" x="31" y="289" width="377" height="213">
<path d="M275.584 330.48C275.584 330.48 252.634 337.212 220.81 326.808C188.986 316.404 157.927 289.017 157.927 289.017C157.927 289.017 147.829 289.17 144.004 296.82C140.332 304.47 140.485 320.229 134.671 324.513C133.294 325.431 129.469 326.502 123.808 328.032C114.628 330.633 101.011 334.611 87.2408 342.414C76.9898 348.228 66.5858 356.031 57.8648 366.741C53.8868 371.637 50.3678 377.145 47.3078 383.418C23.1338 432.531 33.5378 501.381 33.5378 501.381H407.47C407.47 501.381 396.607 416.313 373.198 388.314C349.789 360.315 305.113 337.671 291.955 331.704V322.83C292.108 322.83 283.999 328.185 275.584 330.48Z" fill="#48D89E"/>
</mask>
<g mask="url(#mask1_8_6616)">
<path d="M93.82 388.926C102.777 388.926 110.038 381.665 110.038 372.708C110.038 363.751 102.777 356.49 93.82 356.49C84.8631 356.49 77.6021 363.751 77.6021 372.708C77.6021 381.665 84.8631 388.926 93.82 388.926Z" fill="#FCED7E"/>
<path d="M186.079 381.429C195.036 381.429 202.297 374.168 202.297 365.211C202.297 356.254 195.036 348.993 186.079 348.993C177.122 348.993 169.861 356.254 169.861 365.211C169.861 374.168 177.122 381.429 186.079 381.429Z" fill="#FCED7E"/>
<path d="M255.847 347.004C264.804 347.004 272.065 339.743 272.065 330.786C272.065 321.829 264.804 314.568 255.847 314.568C246.89 314.568 239.629 321.829 239.629 330.786C239.629 339.743 246.89 347.004 255.847 347.004Z" fill="#FCED7E"/>
<path d="M157.315 460.836C166.272 460.836 173.533 453.575 173.533 444.618C173.533 435.661 166.272 428.4 157.315 428.4C148.358 428.4 141.097 435.661 141.097 444.618C141.097 453.575 148.358 460.836 157.315 460.836Z" fill="#FCED7E"/>
<path d="M346.117 452.574C355.074 452.574 362.335 445.313 362.335 436.356C362.335 427.399 355.074 420.138 346.117 420.138C337.16 420.138 329.899 427.399 329.899 436.356C329.899 445.313 337.16 452.574 346.117 452.574Z" fill="#FCED7E"/>
<path d="M256.765 439.416C265.722 439.416 272.983 432.155 272.983 423.198C272.983 414.241 265.722 406.98 256.765 406.98C247.808 406.98 240.547 414.241 240.547 423.198C240.547 432.155 247.808 439.416 256.765 439.416Z" fill="#FCED7E"/>
<path d="M333.571 373.626C342.528 373.626 349.789 366.365 349.789 357.408C349.789 348.451 342.528 341.19 333.571 341.19C324.614 341.19 317.353 348.451 317.353 357.408C317.353 366.365 324.614 373.626 333.571 373.626Z" fill="#FCED7E"/>
</g>
<path d="M292.108 331.704C292.108 331.704 294.097 345.474 290.578 353.277C284.917 366.129 245.596 380.817 198.013 363.681C160.222 350.064 141.709 331.245 141.25 328.338" stroke="#329369" stroke-width="5.08" stroke-miterlimit="10" stroke-linecap="round" stroke-linejoin="round"/>
<path d="M169.861 304.623C169.096 305.541 168.331 306.765 167.719 308.295C165.577 313.497 164.965 324.36 164.965 324.36" stroke="#329369" stroke-width="5.08" stroke-miterlimit="10" stroke-linecap="round" stroke-linejoin="round"/>
<path d="M195.718 320.382C195.106 321.606 194.494 322.983 194.188 324.513C193.423 328.491 192.505 341.037 192.505 341.037" stroke="#329369" stroke-width="5.08" stroke-miterlimit="10" stroke-linecap="round" stroke-linejoin="round"/>
<path d="M221.728 331.092C221.422 332.316 221.116 333.846 220.963 335.682C220.657 337.824 220.81 350.829 220.81 350.829" stroke="#329369" stroke-width="5.08" stroke-miterlimit="10" stroke-linecap="round" stroke-linejoin="round"/>
<path d="M249.574 337.212C249.88 340.731 250.033 345.627 249.574 351.594" stroke="#329369" stroke-width="5.08" stroke-miterlimit="10" stroke-linecap="round" stroke-linejoin="round"/>
<path d="M272.983 335.988C273.442 338.895 273.901 342.873 274.054 347.922" stroke="#329369" stroke-width="5.08" stroke-miterlimit="10" stroke-linecap="round" stroke-linejoin="round"/>
<path d="M153.184 289.629C149.512 291.006 144.616 294.678 142.78 305.388" stroke="#329369" stroke-width="5.08" stroke-miterlimit="10" stroke-linecap="round" stroke-linejoin="round"/>
<path d="M310.162 340.731C302.359 336.447 295.933 333.387 292.108 331.704V322.83" stroke="#329369" stroke-width="5.08" stroke-miterlimit="10" stroke-linecap="round" stroke-linejoin="round"/>
<path d="M263.326 185.912C266.65 186.371 269.218 182.852 268.01 179.486C267.405 177.65 266.348 175.967 264.686 174.896C259.549 171.683 240.361 171.377 230.238 178.721C221.323 185.453 248.217 183.77 263.326 185.912Z" fill="#423232"/>
<path d="M305.177 187.595C302.457 187.595 300.795 184.076 302.155 181.169C302.91 179.639 303.968 178.262 305.479 177.497C310.162 175.202 322.703 176.579 328.293 184.382C333.279 191.267 317.717 187.442 305.177 187.595Z" fill="#423232"/>
<path d="M258.037 205.19C248.368 200.294 233.108 203.966 233.108 203.966" stroke="#423232" stroke-width="5.08" stroke-miterlimit="10" stroke-linecap="round" stroke-linejoin="round"/>
<path d="M317.718 208.25C317.718 208.25 313.79 203.966 299.285 207.332" stroke="#423232" stroke-width="5.08" stroke-miterlimit="10" stroke-linecap="round" stroke-linejoin="round"/>
<path d="M291.519 274.304C287.286 276.167 285.254 272.442 278.65 275.659C273.908 277.86 271.368 278.538 265.611 275.151C261.886 272.78 257.314 276.167 252.911 269.732" stroke="#423232" stroke-width="5.08" stroke-miterlimit="10" stroke-linecap="round" stroke-linejoin="round"/>
<path d="M371.59 330.158C363.022 311.186 356.443 313.787 362.41 296.651C368.377 279.668 360.727 267.581 344.968 251.516C329.974 236.216 328.444 219.539 328.903 217.091C327.526 223.517 326.914 230.096 326.608 236.522C326.149 245.09 326.302 253.505 325.69 261.92C324.466 280.739 320.029 299.252 299.833 316.694C290.959 324.344 279.637 329.852 267.091 332.453C263.725 342.704 268.774 350.048 279.79 351.272C290.806 352.496 295.396 369.02 320.335 376.823C357.667 388.91 380.158 349.13 371.59 330.158Z" fill="#423232"/>
<path d="M301.822 145.028C305.035 146.711 307.789 145.181 309.472 141.815C327.22 139.061 331.351 174.557 331.963 176.699C332.575 178.994 332.881 185.42 331.657 203.015C330.892 212.807 387.808 143.345 335.788 113.969C339.613 108.308 336.859 80.1564 304.882 73.2714C293.407 70.8234 278.413 81.5334 259.594 77.4024C186.001 61.0314 109.654 76.6374 115.621 173.792C116.998 195.059 118.375 218.009 82.267 233.309C40.345 251.057 42.487 297.416 72.016 306.902C84.256 310.88 43.864 338.42 67.426 362.9C79.666 375.752 101.545 349.742 123.73 363.818C157.237 385.085 173.914 375.446 180.493 367.031C193.957 349.895 177.28 315.47 177.28 315.47C177.28 315.47 183.859 304.913 186.001 299.252C196.405 271.406 171.619 258.86 171.619 258.86C133.369 244.172 140.254 201.485 158.92 199.037C178.504 196.589 184.624 214.031 185.695 218.315C185.695 218.315 202.984 242.183 236.338 187.715C269.386 133.247 287.44 137.225 301.822 145.028Z" fill="#423232"/>
<path d="M165.079 249.084V275.094" stroke="#FFDE55" stroke-width="5.08" stroke-miterlimit="10" stroke-linecap="round" stroke-linejoin="round"/>
<path d="M185.734 309.978C181.603 314.109 175.942 316.71 169.516 316.71C157.123 316.71 146.872 306.612 146.872 294.066C146.872 281.673 156.97 271.422 169.516 271.422C175.789 271.422 181.603 274.023 185.734 278.154C182.98 276.624 179.92 275.706 176.554 275.706C166.456 275.706 158.194 283.968 158.194 294.066C158.194 304.164 166.456 312.426 176.554 312.426C179.92 312.579 182.98 311.661 185.734 309.978Z" fill="#FFDE55"/>
<path d="M165.079 303.246C170.065 303.246 174.106 299.204 174.106 294.219C174.106 289.233 170.065 285.192 165.079 285.192C160.094 285.192 156.052 289.233 156.052 294.219C156.052 299.204 160.094 303.246 165.079 303.246Z" fill="#FF6B57"/>
<path d="M339.652 278.46C336.898 276.93 333.838 276.012 330.472 276.012C328.024 276.012 325.882 276.471 323.74 277.389C324.046 275.553 324.505 273.717 324.658 271.881C330.625 272.034 335.827 274.482 339.652 278.46Z" fill="#FFDE55"/>
<path d="M339.805 309.978C335.674 314.109 330.013 316.71 323.587 316.71C317.161 316.71 311.194 313.956 307.063 309.519C309.511 306.765 311.653 304.011 313.642 301.257C316.396 307.836 322.975 312.273 330.472 312.273C333.838 312.579 337.051 311.661 339.805 309.978Z" fill="#FFDE55"/>
<path d="M328.177 294.219C328.177 299.268 324.199 303.246 319.15 303.246C317.161 303.246 315.325 302.634 313.795 301.41C317.314 296.208 319.915 290.853 321.598 285.651C325.27 286.569 328.177 290.088 328.177 294.219Z" fill="#FF6B57"/>
</g>
</svg>
